<svg xmlns="http://www.w3.org/2000/svg" viewBox="0 0 64 64">
  <rect width="64" height="64" rx="12" fill="#e11d48"/>
  <rect x="4" y="4" width="56" height="56" rx="9" fill="#0f172a" opacity="0.9"/>
  <line x1="10" y1="32" x2="26" y2="32" stroke="#e11d48" stroke-width="3" stroke-linecap="round" opacity="0.7"/>
  <line x1="10" y1="26" x2="22" y2="26" stroke="#e11d48" stroke-width="2" stroke-linecap="round" opacity="0.5"/>
  <line x1="10" y1="38" x2="22" y2="38" stroke="#e11d48" stroke-width="2" stroke-linecap="round" opacity="0.5"/>
  <path d="M18 16h6c8 0 14 6 14 16s-6 16-14 16h-6V16z" fill="none" stroke="#ffffff" stroke-width="3.5" stroke-linejoin="round"/>
  <path d="M38 16h12M38 16v32M38 30h10" fill="none" stroke="#ffffff" stroke-width="3.5" stroke-linecap="round" stroke-linejoin="round"/>
  <rect x="46" y="6" width="6" height="6" fill="#ffffff" opacity="0.9"/>
  <rect x="52" y="6" width="6" height="6" fill="#ffffff" opacity="0.4"/>
  <rect x="46" y="12" width="6" height="6" fill="#ffffff" opacity="0.4"/>
  <rect x="52" y="12" width="6" height="6" fill="#ffffff" opacity="0.9"/>
</svg>
